<?xml version="1.0" encoding="UTF-8" standalone="no"?>
<svg
   xmlns:dc="http://purl.org/dc/elements/1.1/"
   xmlns:cc="http://creativecommons.org/ns#"
   xmlns:rdf="http://www.w3.org/1999/02/22-rdf-syntax-ns#"
   xmlns:svg="http://www.w3.org/2000/svg"
   xmlns="http://www.w3.org/2000/svg"
   xmlns:sodipodi="http://sodipodi.sourceforge.net/DTD/sodipodi-0.dtd"
   xmlns:inkscape="http://www.inkscape.org/namespaces/inkscape"
   enable-background="new 0 0 24 24"
   height="80"
   viewBox="0 0 24 24"
   width="80"
   version="1.1"
   id="svg3779"
   sodipodi:docname="githubV2.svg"
   inkscape:version="0.92.5 (2060ec1f9f, 2020-04-08)">
  <metadata
     id="metadata3785">
    <rdf:RDF>
      <cc:Work
         rdf:about="">
        <dc:format>image/svg+xml</dc:format>
        <dc:type
           rdf:resource="http://purl.org/dc/dcmitype/StillImage" />
      </cc:Work>
    </rdf:RDF>
  </metadata>
  <defs
     id="defs3783" />
  <sodipodi:namedview
     pagecolor="#ffffff"
     bordercolor="#666666"
     borderopacity="1"
     objecttolerance="10"
     gridtolerance="10"
     guidetolerance="10"
     inkscape:pageopacity="0"
     inkscape:pageshadow="2"
     inkscape:window-width="3840"
     inkscape:window-height="2032"
     id="namedview3781"
     showgrid="false"
     inkscape:zoom="22.2625"
     inkscape:cx="29.354295"
     inkscape:cy="40"
     inkscape:window-x="0"
     inkscape:window-y="54"
     inkscape:window-maximized="1"
     inkscape:current-layer="svg3779" />
  <path
     d="M 13.010668,1.7532285 C 6.3010958,1.7627772 -4.2617624,6.9131513 0,12.292 c 3.4800856,4.39228 3.438,9.63 8.205,11.188 0.6,0.111 0.82,-0.254 0.82,-0.567 0,-0.28 -0.01,-1.022 -0.015,-2.005 C 5.672,21.619 4.968,19.326 4.968,19.326 4.422,17.965 3.633,17.601 3.633,17.601 2.546,16.87 3.717,16.885 3.717,16.885 4.922,16.967 5.555,18.1 5.555,18.1 6.625,19.903 8.364,19.382 9.05,19.081 9.158,18.318 9.467,17.799 9.81,17.504 7.145,17.209 4.344,16.195 4.344,11.677 4.344,10.39 4.809,9.338 5.579,8.513 5.444,8.215 5.039,7.016 5.684,5.392 c 0,0 1.005,-0.316 3.3,1.209 0.96,-0.262 1.98,-0.392 3,-0.398 1.02,0.006 2.04,0.136 3,0.398 2.28,-1.525 3.285,-1.209 3.285,-1.209 0.645,1.624 0.24,2.823 0.12,3.121 0.765,0.825 1.23,1.877 1.23,3.164 0,4.53 -2.805,5.527 -5.475,5.817 0.42,0.354 0.81,1.077 0.81,2.182 0,1.578 -0.015,2.846 -0.015,3.229 0,0.309 0.21,0.678 0.825,0.56 C 16.621492,17.664197 22.755152,16.152517 24,12.292 25.998504,6.0942485 19.637661,1.7437974 13.010668,1.7532285 Z"
     id="path3777"
     inkscape:connector-curvature="0"
     style="fill:#212121"
     sodipodi:nodetypes="sscscccccccscccccccscsscss" />
  <path
     style="fill:#f08080;fill-opacity:1;stroke:#c87137;stroke-width:0.04491859"
     d="M 27.564659,78.276923 C 27.038068,78.19938 25.303459,77.506888 24.085345,76.887919 19.359461,74.486504 15.902567,70.642304 12.552455,64.062886 11.84528,62.674035 11.121384,61.169671 10.250489,59.279057 9.8123504,58.327906 9.1649109,56.923077 8.8117345,56.157215 5.5529527,49.09055 3.3413763,45.258263 0.10191479,41.06457 -1.3053432,39.242784 -2.0895698,37.843414 -2.6467775,36.159817 -3.0995915,34.791646 -3.276139,33.587769 -3.2349877,32.148816 -3.1305998,28.498643 -1.3075929,24.90215 2.2304858,21.366336 3.9538619,19.644063 5.6329455,18.290735 8.0230221,16.697598 17.677806,10.262078 32.060849,5.8715729 43.490174,5.8710499 c 10.120889,-4.63e-4 20.099643,3.0843481 27.238307,8.4203941 1.356873,1.014243 2.390666,1.921147 3.644137,3.196857 1.213686,1.235215 2.181529,2.413558 3.070841,3.738731 3.36256,5.010588 4.499836,10.720056 3.325156,16.693238 -1.114883,5.669114 -3.390594,9.06447 -9.967941,14.872152 -0.419989,0.370844 -1.632791,1.423147 -2.695115,2.338453 -4.217846,3.634115 -6.262626,5.575506 -8.185873,7.771962 -4.033411,4.606392 -6.380259,9.33118 -7.291953,14.680543 -0.05474,0.321168 -0.120625,0.597606 -0.146412,0.614307 -0.100546,0.06511 -0.795028,0.09089 -1.085543,0.0403 -0.748919,-0.130416 -1.227041,-0.529325 -1.462037,-1.219809 l -0.0981,-0.288247 -0.006,-6.311061 c -0.0059,-6.252097 -0.0069,-6.316519 -0.103429,-6.895003 -0.343286,-2.056894 -1.059216,-3.671147 -2.129752,-4.802093 -0.331661,-0.350374 -0.353402,-0.384378 -0.257837,-0.403252 0.0574,-0.01134 0.447991,-0.06461 0.867979,-0.118388 6.089267,-0.779665 10.343183,-2.706924 13.134891,-5.950832 2.696126,-3.132845 4.054441,-7.528701 4.059845,-13.138686 0.0013,-1.339913 -0.05608,-2.077225 -0.242286,-3.11354 -0.468595,-2.608024 -1.580281,-4.958064 -3.335088,-7.050194 l -0.487071,-0.580701 0.135803,-0.41105 c 0.838931,-2.5393 0.831074,-5.568249 -0.02187,-8.429018 -0.285143,-0.956362 -0.52238,-1.564685 -0.621543,-1.593737 -0.209873,-0.06149 -1.107948,-0.07709 -1.550252,-0.02693 -2.401653,0.27236 -5.195163,1.439187 -8.572569,3.580694 -0.403849,0.256068 -0.763665,0.46558 -0.799586,0.46558 -0.03593,0 -0.342221,-0.06938 -0.680665,-0.154165 -3.73688,-0.93621 -7.819782,-1.305119 -11.687775,-1.056044 -2.40203,0.154676 -5.172657,0.591623 -7.195184,1.134731 L 29.95326,21.980967 29.444906,21.65005 c -2.369503,-1.542446 -4.823952,-2.737554 -6.81144,-3.316592 -1.146235,-0.333945 -1.780652,-0.436892 -2.725549,-0.442273 -0.563339,-0.0032 -0.837645,0.01208 -0.904524,0.05041 -0.06622,0.03795 -0.154412,0.219053 -0.284364,0.583942 -0.990596,2.781463 -1.226889,5.532171 -0.693042,8.067776 0.113779,0.540416 0.3781,1.427949 0.491036,1.648798 0.05512,0.107779 0.04319,0.131382 -0.215542,0.426726 -2.034728,2.322618 -3.241837,4.908583 -3.668503,7.858959 -0.250029,1.728943 -0.225929,3.974493 0.06772,6.309523 0.479258,3.810995 1.731096,6.910144 3.774269,9.343877 0.742401,0.884312 1.98456,1.984292 3.027564,2.681028 1.69575,1.13278 3.917693,2.065168 6.348441,2.663987 1.364788,0.336215 3.354652,0.68893 4.473072,0.792876 l 0.314891,0.02927 -0.376382,0.399824 c -0.712334,0.756712 -1.26664,1.728773 -1.660281,2.911565 -0.183123,0.550239 -0.430454,1.603256 -0.430454,1.832669 0,0.07512 -0.08455,0.124878 -0.460416,0.270967 -2.85219,1.108546 -5.42977,1.124909 -7.60247,0.04826 -0.745922,-0.369635 -1.292071,-0.770866 -1.980671,-1.455115 -0.652868,-0.648746 -0.974299,-1.053795 -1.507901,-1.900169 -0.197958,-0.31399 -0.472132,-0.722493 -0.609276,-0.907782 -0.363199,-0.490699 -1.487509,-1.588631 -1.988621,-1.941956 -1.413584,-0.996703 -3.147957,-1.499602 -4.411193,-1.27907 -0.748894,0.13074 -1.098951,0.386057 -1.052276,0.767488 0.04672,0.381812 0.610895,0.972784 1.443256,1.511802 0.798364,0.517009 1.037729,0.702325 1.564509,1.211248 1.226503,1.18493 2.240597,2.765085 2.992087,4.662252 0.468462,1.182648 1.063111,2.061296 2.029765,2.999165 1.43349,1.390796 3.17562,2.200844 5.519198,2.566297 0.41398,0.06455 0.793093,0.08061 1.909039,0.08083 1.577824,4.49e-4 1.972953,-0.03756 3.823389,-0.366473 0.130375,-0.02317 0.141937,-0.01445 0.167149,0.126006 0.0149,0.083 0.02924,1.666906 0.03187,3.519798 0.0053,3.766446 0.01815,3.599834 -0.314602,4.094297 -0.09727,0.144544 -0.249448,0.319857 -0.338169,0.389584 -0.451936,0.355189 -1.101389,0.493183 -1.821822,0.38709 z"
     id="path4613"
     inkscape:connector-curvature="0"
     transform="scale(0.3)" />
</svg>
