<?xml version="1.0" standalone="no"?>
<!DOCTYPE svg PUBLIC "-//W3C//DTD SVG 20010904//EN"
 "http://www.w3.org/TR/2001/REC-SVG-20010904/DTD/svg10.dtd">
<svg version="1.0" xmlns="http://www.w3.org/2000/svg" viewBox="0 0 225.000000 225.000000">

<g transform="translate(0.000000,225.000000) scale(0.100000,-0.100000)"
fill="#000000" stroke="none">
<path d="M0 1125 l0 -1125 1125 0 1125 0 0 1125 0 1125 -1125 0 -1125 0 0
-1125z m1415 1041 c231 -68 433 -207 576 -395 65 -86 153 -265 179 -366 96
-371 -2 -751 -264 -1024 -39 -40 -99 -95 -134 -121 -82 -63 -245 -144 -357
-176 -81 -24 -107 -27 -265 -28 -201 -1 -241 4 -365 45 -281 94 -517 306 -643
578 -108 235 -123 561 -35 805 91 253 293 485 522 600 84 43 232 93 296 102
28 3 52 8 55 11 3 3 82 3 175 0 146 -4 183 -8 260 -31z"/>
<path d="M442 1288 c3 -244 5 -266 24 -309 31 -67 87 -124 152 -156 49 -24 69
-28 142 -28 72 1 93 5 135 27 107 56 167 148 175 272 l5 78 58 -92 57 -93 -50
-228 c-27 -126 -50 -233 -50 -239 0 -6 34 -10 84 -10 84 0 84 0 90 28 3 15 19
91 36 169 16 78 30 144 30 147 0 3 25 -6 55 -20 149 -69 311 -42 410 68 60 67
87 129 92 213 9 132 -59 245 -182 306 -54 26 -76 31 -139 32 -135 1 -241 -72
-299 -203 l-24 -53 -35 64 c-34 61 -77 156 -110 244 l-16 40 -80 3 -81 3 -3
-245 c-3 -230 -4 -246 -24 -273 -70 -95 -201 -98 -261 -6 -16 24 -19 58 -23
273 l-5 245 -83 3 -83 3 3 -263z m1198 -20 c55 -38 75 -73 75 -132 0 -133
-129 -205 -262 -146 -79 35 -82 39 -66 116 16 78 31 110 70 145 35 33 47 37
104 38 32 1 56 -6 79 -21z"/>
</g>
</svg>
